<svg width="130" height="22" viewBox="0 0 130 22" fill="none" xmlns="http://www.w3.org/2000/svg">
<path d="M10.744 20.336C8.96797 20.336 7.41597 20.08 6.08797 19.568C4.75997 19.056 3.71997 18.328 2.96797 17.384C2.21597 16.44 1.79997 15.336 1.71997 14.072H4.88797C5.04797 15.272 5.62397 16.2 6.61597 16.856C7.62397 17.496 8.99997 17.816 10.744 17.816C12.424 17.816 13.728 17.56 14.656 17.048C15.6 16.52 16.072 15.736 16.072 14.696C16.072 13.816 15.688 13.16 14.92 12.728C14.152 12.296 12.92 12.08 11.224 12.08H7.62397V9.84802H11.152C12.16 9.84802 12.992 9.72802 13.648 9.48802C14.304 9.24802 14.792 8.92002 15.112 8.50402C15.432 8.07202 15.592 7.60002 15.592 7.08802C15.592 6.46402 15.392 5.93602 14.992 5.50402C14.608 5.07202 14.056 4.74402 13.336 4.52002C12.616 4.29602 11.776 4.18402 10.816 4.18402C9.21597 4.18402 7.93597 4.49602 6.97597 5.12002C6.01597 5.74402 5.44797 6.60802 5.27197 7.71202H2.12797C2.23997 6.57602 2.64797 5.55202 3.35197 4.64002C4.07197 3.72802 5.07197 3.00802 6.35197 2.48002C7.64797 1.93602 9.18397 1.66402 10.96 1.66402C12.56 1.66402 13.944 1.88002 15.112 2.31202C16.296 2.72802 17.208 3.31202 17.848 4.06402C18.504 4.80002 18.832 5.65602 18.832 6.63202C18.832 7.46402 18.584 8.22402 18.088 8.91202C17.592 9.60002 16.848 10.144 15.856 10.544C14.864 10.944 13.616 11.144 12.112 11.144V10.688C13.6 10.624 14.88 10.752 15.952 11.072C17.024 11.376 17.848 11.848 18.424 12.488C19.016 13.128 19.312 13.928 19.312 14.888C19.312 15.976 18.976 16.928 18.304 17.744C17.648 18.56 16.68 19.2 15.4 19.664C14.12 20.112 12.568 20.336 10.744 20.336Z" fill="#5EB1A5"/>
<path d="M22.0857 6.41602H25.1817V20H22.0857V6.41602ZM33.6297 6.41602H36.7257V20H33.6297V6.41602ZM23.8377 11.912H34.9257V14.312H23.8377V11.912Z" fill="#5EB1A5"/>
<path d="M52.7108 20L52.1828 14.96L52.8068 13.208L52.1828 11.48L52.7108 6.41602H55.9268L55.2068 13.208L55.9268 20H52.7108ZM53.6708 13.208C53.3668 14.632 52.8628 15.88 52.1588 16.952C51.4548 18.024 50.5828 18.856 49.5428 19.448C48.5188 20.04 47.3748 20.336 46.1108 20.336C44.7828 20.336 43.6068 20.04 42.5828 19.448C41.5588 18.84 40.7588 18 40.1828 16.928C39.6068 15.856 39.3188 14.616 39.3188 13.208C39.3188 11.784 39.6068 10.544 40.1828 9.48802C40.7588 8.41602 41.5588 7.58402 42.5828 6.99202C43.6068 6.38402 44.7828 6.08002 46.1108 6.08002C47.3748 6.08002 48.5188 6.37602 49.5428 6.96802C50.5828 7.56002 51.4548 8.39202 52.1588 9.46402C52.8788 10.52 53.3828 11.768 53.6708 13.208ZM42.4868 13.208C42.4868 14.12 42.6708 14.928 43.0388 15.632C43.4228 16.32 43.9428 16.864 44.5988 17.264C45.2548 17.648 46.0068 17.84 46.8548 17.84C47.7188 17.84 48.5188 17.648 49.2548 17.264C49.9908 16.864 50.6388 16.32 51.1988 15.632C51.7748 14.928 52.2308 14.12 52.5668 13.208C52.2308 12.296 51.7748 11.496 51.1988 10.808C50.6388 10.104 49.9908 9.56002 49.2548 9.17602C48.5188 8.77602 47.7188 8.57602 46.8548 8.57602C46.0068 8.57602 45.2548 8.77602 44.5988 9.17602C43.9428 9.56002 43.4228 10.104 43.0388 10.808C42.6708 11.496 42.4868 12.296 42.4868 13.208Z" fill="#5EB1A5"/>
<path d="M58.9294 20V6.41602H62.0014V18.44L61.0654 18.224L70.3534 6.41602H74.3854V20H71.3134V7.80802L72.2734 8.04802L62.8654 20H58.9294ZM66.5854 5.04802C65.1454 5.04802 63.9854 4.68802 63.1054 3.96802C62.2414 3.24802 61.7054 2.20802 61.4974 0.848022H64.0174C64.1454 1.58402 64.4334 2.15202 64.8814 2.55202C65.3294 2.93602 65.8974 3.12802 66.5854 3.12802C67.2734 3.12802 67.8414 2.93602 68.2894 2.55202C68.7374 2.15202 69.0254 1.58402 69.1534 0.848022H71.6494C71.4574 2.20802 70.9214 3.24802 70.0414 3.96802C69.1614 4.68802 68.0094 5.04802 66.5854 5.04802Z" fill="#5EB1A5"/>
<path d="M88.7953 11.072L89.1073 10.376C90.5313 10.392 91.6913 10.608 92.5873 11.024C93.4993 11.44 94.1633 12 94.5793 12.704C95.0113 13.408 95.2273 14.2 95.2273 15.08C95.2273 16.04 94.9953 16.888 94.5313 17.624C94.0833 18.36 93.4193 18.944 92.5393 19.376C91.6593 19.792 90.5633 20 89.2513 20H77.2513L78.6673 10.76L77.2513 2.00002H88.8193C90.4833 2.00002 91.7633 2.39202 92.6593 3.17602C93.5713 3.94402 94.0273 5.00802 94.0273 6.36802C94.0273 7.08802 93.8513 7.79202 93.4993 8.48002C93.1633 9.15202 92.6113 9.72802 91.8433 10.208C91.0913 10.672 90.0753 10.96 88.7953 11.072ZM80.4433 19.112L79.2193 17.456H88.8913C89.8833 17.456 90.6514 17.232 91.1954 16.784C91.7554 16.32 92.0353 15.664 92.0353 14.816C92.0353 13.92 91.7073 13.224 91.0513 12.728C90.4113 12.232 89.4593 11.984 88.1953 11.984H80.3953V9.53602H87.8833C88.7313 9.53602 89.4353 9.30402 89.9953 8.84002C90.5553 8.36002 90.8353 7.68002 90.8353 6.80002C90.8353 6.14402 90.6033 5.60802 90.1393 5.19202C89.6753 4.76002 89.0033 4.54402 88.1233 4.54402H79.2193L80.4433 2.88802L81.7153 10.76L80.4433 19.112Z" fill="#5EB1A5"/>
<path d="M112.836 14.648C112.676 15.768 112.236 16.76 111.516 17.624C110.796 18.472 109.876 19.136 108.756 19.616C107.636 20.096 106.388 20.336 105.012 20.336C103.444 20.336 102.06 20.04 100.86 19.448C99.6757 18.84 98.7477 18 98.0757 16.928C97.4037 15.856 97.0677 14.616 97.0677 13.208C97.0677 11.8 97.4037 10.56 98.0757 9.48802C98.7477 8.41602 99.6757 7.58402 100.86 6.99202C102.06 6.38402 103.444 6.08002 105.012 6.08002C106.388 6.08002 107.636 6.32002 108.756 6.80002C109.876 7.28002 110.796 7.95202 111.516 8.81602C112.236 9.66402 112.676 10.656 112.836 11.792H109.692C109.468 10.768 108.932 9.96802 108.084 9.39202C107.236 8.81602 106.212 8.52802 105.012 8.52802C104.052 8.52802 103.212 8.72002 102.492 9.10402C101.772 9.47202 101.212 10.008 100.812 10.712C100.428 11.4 100.236 12.232 100.236 13.208C100.236 14.168 100.428 15 100.812 15.704C101.212 16.408 101.772 16.952 102.492 17.336C103.212 17.704 104.052 17.888 105.012 17.888C106.228 17.888 107.26 17.592 108.108 17C108.956 16.408 109.484 15.624 109.692 14.648H112.836Z" fill="#5EB1A5"/>
<path d="M122.619 20.336C121.035 20.336 119.627 20.04 118.395 19.448C117.163 18.84 116.195 18 115.491 16.928C114.787 15.856 114.435 14.608 114.435 13.184C114.435 11.776 114.763 10.544 115.419 9.48802C116.091 8.41602 117.011 7.58402 118.179 6.99202C119.363 6.38402 120.715 6.08002 122.235 6.08002C123.755 6.08002 125.067 6.42402 126.171 7.11202C127.291 7.78402 128.155 8.73602 128.763 9.96802C129.371 11.2 129.675 12.648 129.675 14.312H116.883V11.936H128.115L126.555 12.824C126.507 11.928 126.291 11.16 125.907 10.52C125.539 9.88002 125.035 9.39202 124.395 9.05602C123.771 8.70402 123.027 8.52802 122.163 8.52802C121.251 8.52802 120.451 8.71202 119.763 9.08002C119.091 9.44802 118.563 9.96802 118.179 10.64C117.795 11.296 117.603 12.08 117.603 12.992C117.603 14 117.827 14.872 118.275 15.608C118.739 16.344 119.387 16.912 120.219 17.312C121.067 17.696 122.067 17.888 123.219 17.888C124.259 17.888 125.323 17.728 126.411 17.408C127.499 17.072 128.459 16.608 129.291 16.016V18.272C128.459 18.912 127.443 19.416 126.243 19.784C125.059 20.152 123.851 20.336 122.619 20.336ZM118.659 4.61602C118.083 4.61602 117.611 4.46402 117.243 4.16002C116.891 3.84002 116.715 3.41602 116.715 2.88802C116.715 2.37602 116.891 1.96802 117.243 1.66402C117.611 1.34402 118.083 1.18402 118.659 1.18402C119.235 1.18402 119.699 1.34402 120.051 1.66402C120.419 1.96802 120.603 2.37602 120.603 2.88802C120.603 3.41602 120.419 3.84002 120.051 4.16002C119.699 4.46402 119.235 4.61602 118.659 4.61602ZM125.691 4.61602C125.115 4.61602 124.643 4.46402 124.275 4.16002C123.923 3.84002 123.747 3.41602 123.747 2.88802C123.747 2.37602 123.923 1.96802 124.275 1.66402C124.643 1.34402 125.115 1.18402 125.691 1.18402C126.251 1.18402 126.707 1.34402 127.059 1.66402C127.427 1.96802 127.611 2.37602 127.611 2.88802C127.611 3.41602 127.427 3.84002 127.059 4.16002C126.707 4.46402 126.251 4.61602 125.691 4.61602Z" fill="#5EB1A5"/>
<path d="M9.74397 21.336C7.96797 21.336 6.41597 21.08 5.08797 20.568C3.75997 20.056 2.71997 19.328 1.96797 18.384C1.21597 17.44 0.799971 16.336 0.719971 15.072H3.88797C4.04797 16.272 4.62397 17.2 5.61597 17.856C6.62397 18.496 7.99997 18.816 9.74397 18.816C11.424 18.816 12.728 18.56 13.656 18.048C14.6 17.52 15.072 16.736 15.072 15.696C15.072 14.816 14.688 14.16 13.92 13.728C13.152 13.296 11.92 13.08 10.224 13.08H6.62397V10.848H10.152C11.16 10.848 11.992 10.728 12.648 10.488C13.304 10.248 13.792 9.92002 14.112 9.50402C14.432 9.07202 14.592 8.60002 14.592 8.08802C14.592 7.46402 14.392 6.93602 13.992 6.50402C13.608 6.07202 13.056 5.74402 12.336 5.52002C11.616 5.29602 10.776 5.18402 9.81597 5.18402C8.21597 5.18402 6.93597 5.49602 5.97597 6.12002C5.01597 6.74402 4.44797 7.60802 4.27197 8.71202H1.12797C1.23997 7.57602 1.64797 6.55202 2.35197 5.64002C3.07197 4.72802 4.07197 4.00802 5.35197 3.48002C6.64797 2.93602 8.18397 2.66402 9.95997 2.66402C11.56 2.66402 12.944 2.88002 14.112 3.31202C15.296 3.72802 16.208 4.31202 16.848 5.06402C17.504 5.80002 17.832 6.65602 17.832 7.63202C17.832 8.46402 17.584 9.22402 17.088 9.91202C16.592 10.6 15.848 11.144 14.856 11.544C13.864 11.944 12.616 12.144 11.112 12.144V11.688C12.6 11.624 13.88 11.752 14.952 12.072C16.024 12.376 16.848 12.848 17.424 13.488C18.016 14.128 18.312 14.928 18.312 15.888C18.312 16.976 17.976 17.928 17.304 18.744C16.648 19.56 15.68 20.2 14.4 20.664C13.12 21.112 11.568 21.336 9.74397 21.336Z" fill="white"/>
<path d="M21.0857 7.41602H24.1817V21H21.0857V7.41602ZM32.6297 7.41602H35.7257V21H32.6297V7.41602ZM22.8377 12.912H33.9257V15.312H22.8377V12.912Z" fill="white"/>
<path d="M51.7108 21L51.1828 15.96L51.8068 14.208L51.1828 12.48L51.7108 7.41602H54.9268L54.2068 14.208L54.9268 21H51.7108ZM52.6708 14.208C52.3668 15.632 51.8628 16.88 51.1588 17.952C50.4548 19.024 49.5828 19.856 48.5428 20.448C47.5188 21.04 46.3748 21.336 45.1108 21.336C43.7828 21.336 42.6068 21.04 41.5828 20.448C40.5588 19.84 39.7588 19 39.1828 17.928C38.6068 16.856 38.3188 15.616 38.3188 14.208C38.3188 12.784 38.6068 11.544 39.1828 10.488C39.7588 9.41602 40.5588 8.58402 41.5828 7.99202C42.6068 7.38402 43.7828 7.08002 45.1108 7.08002C46.3748 7.08002 47.5188 7.37602 48.5428 7.96802C49.5828 8.56002 50.4548 9.39202 51.1588 10.464C51.8788 11.52 52.3828 12.768 52.6708 14.208ZM41.4868 14.208C41.4868 15.12 41.6708 15.928 42.0388 16.632C42.4228 17.32 42.9428 17.864 43.5988 18.264C44.2548 18.648 45.0068 18.84 45.8548 18.84C46.7188 18.84 47.5188 18.648 48.2548 18.264C48.9908 17.864 49.6388 17.32 50.1988 16.632C50.7748 15.928 51.2308 15.12 51.5668 14.208C51.2308 13.296 50.7748 12.496 50.1988 11.808C49.6388 11.104 48.9908 10.56 48.2548 10.176C47.5188 9.77602 46.7188 9.57602 45.8548 9.57602C45.0068 9.57602 44.2548 9.77602 43.5988 10.176C42.9428 10.56 42.4228 11.104 42.0388 11.808C41.6708 12.496 41.4868 13.296 41.4868 14.208Z" fill="white"/>
<path d="M57.9294 21V7.41602H61.0014V19.44L60.0654 19.224L69.3534 7.41602H73.3854V21H70.3134V8.80802L71.2734 9.04802L61.8654 21H57.9294ZM65.5854 6.04802C64.1454 6.04802 62.9854 5.68802 62.1054 4.96802C61.2414 4.24802 60.7054 3.20802 60.4974 1.84802H63.0174C63.1454 2.58402 63.4334 3.15202 63.8814 3.55202C64.3294 3.93602 64.8974 4.12802 65.5854 4.12802C66.2734 4.12802 66.8414 3.93602 67.2894 3.55202C67.7374 3.15202 68.0254 2.58402 68.1534 1.84802H70.6494C70.4574 3.20802 69.9214 4.24802 69.0414 4.96802C68.1614 5.68802 67.0094 6.04802 65.5854 6.04802Z" fill="white"/>
<path d="M87.7953 12.072L88.1073 11.376C89.5313 11.392 90.6913 11.608 91.5873 12.024C92.4993 12.44 93.1633 13 93.5793 13.704C94.0113 14.408 94.2273 15.2 94.2273 16.08C94.2273 17.04 93.9953 17.888 93.5313 18.624C93.0833 19.36 92.4193 19.944 91.5393 20.376C90.6593 20.792 89.5633 21 88.2513 21H76.2513L77.6673 11.76L76.2513 3.00002H87.8193C89.4833 3.00002 90.7633 3.39202 91.6593 4.17602C92.5713 4.94402 93.0273 6.00802 93.0273 7.36802C93.0273 8.08802 92.8513 8.79202 92.4993 9.48002C92.1633 10.152 91.6113 10.728 90.8433 11.208C90.0913 11.672 89.0753 11.96 87.7953 12.072ZM79.4433 20.112L78.2193 18.456H87.8913C88.8833 18.456 89.6514 18.232 90.1954 17.784C90.7554 17.32 91.0353 16.664 91.0353 15.816C91.0353 14.92 90.7073 14.224 90.0513 13.728C89.4113 13.232 88.4593 12.984 87.1953 12.984H79.3953V10.536H86.8833C87.7313 10.536 88.4353 10.304 88.9953 9.84002C89.5553 9.36002 89.8353 8.68002 89.8353 7.80002C89.8353 7.14402 89.6033 6.60802 89.1393 6.19202C88.6753 5.76002 88.0033 5.54402 87.1233 5.54402H78.2193L79.4433 3.88802L80.7153 11.76L79.4433 20.112Z" fill="white"/>
<path d="M111.836 15.648C111.676 16.768 111.236 17.76 110.516 18.624C109.796 19.472 108.876 20.136 107.756 20.616C106.636 21.096 105.388 21.336 104.012 21.336C102.444 21.336 101.06 21.04 99.8597 20.448C98.6757 19.84 97.7477 19 97.0757 17.928C96.4037 16.856 96.0677 15.616 96.0677 14.208C96.0677 12.8 96.4037 11.56 97.0757 10.488C97.7477 9.41602 98.6757 8.58402 99.8597 7.99202C101.06 7.38402 102.444 7.08002 104.012 7.08002C105.388 7.08002 106.636 7.32002 107.756 7.80002C108.876 8.28002 109.796 8.95202 110.516 9.81602C111.236 10.664 111.676 11.656 111.836 12.792H108.692C108.468 11.768 107.932 10.968 107.084 10.392C106.236 9.81602 105.212 9.52802 104.012 9.52802C103.052 9.52802 102.212 9.72002 101.492 10.104C100.772 10.472 100.212 11.008 99.8117 11.712C99.4277 12.4 99.2357 13.232 99.2357 14.208C99.2357 15.168 99.4277 16 99.8117 16.704C100.212 17.408 100.772 17.952 101.492 18.336C102.212 18.704 103.052 18.888 104.012 18.888C105.228 18.888 106.26 18.592 107.108 18C107.956 17.408 108.484 16.624 108.692 15.648H111.836Z" fill="white"/>
<path d="M121.619 21.336C120.035 21.336 118.627 21.04 117.395 20.448C116.163 19.84 115.195 19 114.491 17.928C113.787 16.856 113.435 15.608 113.435 14.184C113.435 12.776 113.763 11.544 114.419 10.488C115.091 9.41602 116.011 8.58402 117.179 7.99202C118.363 7.38402 119.715 7.08002 121.235 7.08002C122.755 7.08002 124.067 7.42402 125.171 8.11202C126.291 8.78402 127.155 9.73602 127.763 10.968C128.371 12.2 128.675 13.648 128.675 15.312H115.883V12.936H127.115L125.555 13.824C125.507 12.928 125.291 12.16 124.907 11.52C124.539 10.88 124.035 10.392 123.395 10.056C122.771 9.70402 122.027 9.52802 121.163 9.52802C120.251 9.52802 119.451 9.71202 118.763 10.08C118.091 10.448 117.563 10.968 117.179 11.64C116.795 12.296 116.603 13.08 116.603 13.992C116.603 15 116.827 15.872 117.275 16.608C117.739 17.344 118.387 17.912 119.219 18.312C120.067 18.696 121.067 18.888 122.219 18.888C123.259 18.888 124.323 18.728 125.411 18.408C126.499 18.072 127.459 17.608 128.291 17.016V19.272C127.459 19.912 126.443 20.416 125.243 20.784C124.059 21.152 122.851 21.336 121.619 21.336ZM117.659 5.61602C117.083 5.61602 116.611 5.46402 116.243 5.16002C115.891 4.84002 115.715 4.41602 115.715 3.88802C115.715 3.37602 115.891 2.96802 116.243 2.66402C116.611 2.34402 117.083 2.18402 117.659 2.18402C118.235 2.18402 118.699 2.34402 119.051 2.66402C119.419 2.96802 119.603 3.37602 119.603 3.88802C119.603 4.41602 119.419 4.84002 119.051 5.16002C118.699 5.46402 118.235 5.61602 117.659 5.61602ZM124.691 5.61602C124.115 5.61602 123.643 5.46402 123.275 5.16002C122.923 4.84002 122.747 4.41602 122.747 3.88802C122.747 3.37602 122.923 2.96802 123.275 2.66402C123.643 2.34402 124.115 2.18402 124.691 2.18402C125.251 2.18402 125.707 2.34402 126.059 2.66402C126.427 2.96802 126.611 3.37602 126.611 3.88802C126.611 4.41602 126.427 4.84002 126.059 5.16002C125.707 5.46402 125.251 5.61602 124.691 5.61602Z" fill="white"/>
</svg>
