<svg width="50" height="50" viewBox="0 0 50 50" fill="none" xmlns="http://www.w3.org/2000/svg">
<path d="M33.4165 8.33464C32.0503 8.33791 30.7225 8.78743 29.6353 9.61479C28.5481 10.4421 27.7609 11.602 27.3936 12.918L18.9582 43.268C18.7565 43.9996 18.3222 44.6458 17.7208 45.1088C17.1195 45.5719 16.3838 45.8266 15.6249 45.8346C14.8826 45.8248 14.1611 45.5882 13.5571 45.1567C12.9531 44.7251 12.4955 44.1191 12.2457 43.4201L6.42696 27.4201C6.04774 26.3299 5.41234 25.3467 4.57417 24.5531C3.736 23.7595 2.71956 23.1788 1.6103 22.8596C1.07324 22.7295 0.609863 22.3914 0.322113 21.9196C0.0343618 21.4478 -0.0541933 20.8811 0.0759283 20.344C0.20605 19.8069 0.54419 19.3436 1.01596 19.0558C1.48773 18.7681 2.05449 18.6795 2.59155 18.8096C4.37098 19.2865 6.00715 20.1904 7.35806 21.443C8.70897 22.6955 9.73381 24.2588 10.3436 25.9971L15.4978 40.1638L23.3811 11.7971C23.995 9.60619 25.3072 7.67553 27.1186 6.29852C28.9299 4.92151 31.1412 4.17343 33.4165 4.16797H47.9165C48.469 4.16797 48.9989 4.38746 49.3896 4.77816C49.7803 5.16886 49.9998 5.69877 49.9998 6.2513C49.9998 6.80384 49.7803 7.33374 49.3896 7.72444C48.9989 8.11514 48.469 8.33464 47.9165 8.33464H33.4165ZM49.1665 25.418C48.7245 25.0864 48.1688 24.9441 47.6219 25.0222C47.0749 25.1004 46.5814 25.3926 46.2498 25.8346L41.6665 31.9451L37.0832 25.8346C36.7517 25.3926 36.2581 25.1004 35.7111 25.0222C35.1642 24.9441 34.6085 25.0864 34.1665 25.418C33.7245 25.7495 33.4323 26.243 33.3541 26.79C33.276 27.337 33.4183 27.8926 33.7498 28.3346L39.0623 35.418L33.7498 42.5013C33.5857 42.7202 33.4663 42.9692 33.3984 43.2343C33.3305 43.4993 33.3154 43.7751 33.3541 44.0459C33.3928 44.3168 33.4845 44.5773 33.6239 44.8127C33.7633 45.0482 33.9476 45.2538 34.1665 45.418C34.3854 45.5821 34.6344 45.7016 34.8995 45.7695C35.1645 45.8374 35.4403 45.8524 35.7111 45.8137C35.982 45.775 36.2425 45.6833 36.478 45.544C36.7134 45.4046 36.919 45.2202 37.0832 45.0013L41.6665 38.8909L46.2498 45.0013C46.414 45.2202 46.6196 45.4046 46.8551 45.544C47.0905 45.6833 47.351 45.775 47.6219 45.8137C47.8927 45.8524 48.1685 45.8374 48.4335 45.7695C48.6986 45.7016 48.9476 45.5821 49.1665 45.418C49.3854 45.2538 49.5698 45.0482 49.7091 44.8127C49.8485 44.5773 49.9402 44.3168 49.9789 44.0459C50.0176 43.7751 50.0025 43.4993 49.9346 43.2343C49.8667 42.9692 49.7473 42.7202 49.5832 42.5013L44.2707 35.418L49.5832 28.3346C49.7473 28.1158 49.8667 27.8667 49.9346 27.6017C50.0025 27.3367 50.0176 27.0608 49.9789 26.79C49.9402 26.5192 49.8485 26.2586 49.7091 26.0232C49.5698 25.7878 49.3854 25.5821 49.1665 25.418V25.418Z" fill="#1A8373"/>
</svg>
