<svg width="50" height="50" viewBox="0 0 50 50" fill="none" xmlns="http://www.w3.org/2000/svg">
<path d="M20.8333 35.3125H12.9375C5.91663 35.3125 4.16663 33.5625 4.16663 26.5417V14.0417C4.16663 7.02087 5.91663 5.27087 12.9375 5.27087H34.875C41.8958 5.27087 43.6458 7.02087 43.6458 14.0417" stroke="#1A8373" stroke-width="3.5" stroke-linecap="round" stroke-linejoin="round"/>
<path d="M20.8334 44.7292V35.3125" stroke="#1A8373" stroke-width="3.5" stroke-linecap="round" stroke-linejoin="round"/>
<path d="M4.16663 26.9791H20.8333" stroke="#1A8373" stroke-width="3.5" stroke-linecap="round" stroke-linejoin="round"/>
<path d="M14.0416 44.7291H20.8333" stroke="#1A8373" stroke-width="3.5" stroke-linecap="round" stroke-linejoin="round"/>
<path d="M45.8333 26.6667V38.5625C45.8333 43.5 44.6041 44.7292 39.6666 44.7292H32.2708C27.3333 44.7292 26.1041 43.5 26.1041 38.5625V26.6667C26.1041 21.7292 27.3333 20.5 32.2708 20.5H39.6666C44.6041 20.5 45.8333 21.7292 45.8333 26.6667Z" stroke="#1A8373" stroke-width="3.5" stroke-linecap="round" stroke-linejoin="round"/>
<path d="M35.9261 38.0208H35.9448" stroke="#1A8373" stroke-width="3.5" stroke-linecap="round" stroke-linejoin="round"/>
</svg>
