<svg width="50" height="50" viewBox="0 0 50 50" fill="none" xmlns="http://www.w3.org/2000/svg">
<g clip-path="url(#clip0_1037_33)">
<path d="M43.75 33.3342V25.0009C43.7493 22.2019 43.1208 19.4388 41.9108 16.915C40.7008 14.3911 38.9401 12.1708 36.7583 10.4175H42.2437C42.7054 11.2042 43.4136 11.8168 44.2586 12.1604C45.1035 12.504 46.0382 12.5595 46.9179 12.3183C47.7976 12.0771 48.5733 11.5527 49.1248 10.8261C49.6764 10.0996 49.9731 9.21155 49.969 8.29939C49.9649 7.38723 49.6602 6.50186 49.1021 5.78032C48.5441 5.05879 47.7637 4.54134 46.8819 4.30807C46 4.07479 45.0659 4.13871 44.224 4.48992C43.3822 4.84112 42.6796 5.46004 42.225 6.25086H33.0375C32.5828 4.46423 31.5457 2.88003 30.0902 1.74855C28.6346 0.617069 26.8436 0.00280762 25 0.00280762C23.1564 0.00280762 21.3654 0.617069 19.9098 1.74855C18.4543 2.88003 17.4172 4.46423 16.9625 6.25086H7.75625C7.29455 5.46416 6.58641 4.8516 5.74144 4.50798C4.89647 4.16436 3.96179 4.10886 3.08209 4.35006C2.20239 4.59126 1.42672 5.11571 0.875166 5.84224C0.32361 6.56876 0.026922 7.45684 0.0310267 8.369C0.0351314 9.28116 0.3398 10.1665 0.897872 10.8881C1.45594 11.6096 2.2363 12.127 3.11813 12.3603C3.99997 12.5936 4.93411 12.5297 5.77596 12.1785C6.6178 11.8273 7.3204 11.2083 7.775 10.4175H13.2417C11.0599 12.1708 9.2992 14.3911 8.08919 16.915C6.87918 19.4388 6.25069 22.2019 6.25 25.0009V33.3342C4.5924 33.3342 3.00268 33.9927 1.83058 35.1648C0.65848 36.3369 0 37.9266 0 39.5842L0 43.7509C0 45.4085 0.65848 46.9982 1.83058 48.1703C3.00268 49.3424 4.5924 50.0009 6.25 50.0009H10.4167C12.0743 50.0009 13.664 49.3424 14.8361 48.1703C16.0082 46.9982 16.6667 45.4085 16.6667 43.7509V39.5842C16.6667 37.9266 16.0082 36.3369 14.8361 35.1648C13.664 33.9927 12.0743 33.3342 10.4167 33.3342V25.0009C10.4201 22.4357 11.1 19.9167 12.3879 17.6983C13.6758 15.4798 15.5261 13.6403 17.7521 12.3654C18.4624 13.6675 19.5103 14.7541 20.7857 15.5112C22.0611 16.2683 23.5168 16.6678 25 16.6678C26.4832 16.6678 27.9389 16.2683 29.2143 15.5112C30.4897 14.7541 31.5376 13.6675 32.2479 12.3654C34.4739 13.6403 36.3242 15.4798 37.6121 17.6983C38.9 19.9167 39.5799 22.4357 39.5833 25.0009V33.3342C37.9257 33.3342 36.336 33.9927 35.1639 35.1648C33.9918 36.3369 33.3333 37.9266 33.3333 39.5842V43.7509C33.3333 45.4085 33.9918 46.9982 35.1639 48.1703C36.336 49.3424 37.9257 50.0009 39.5833 50.0009H43.75C45.4076 50.0009 46.9973 49.3424 48.1694 48.1703C49.3415 46.9982 50 45.4085 50 43.7509V39.5842C50 37.9266 49.3415 36.3369 48.1694 35.1648C46.9973 33.9927 45.4076 33.3342 43.75 33.3342V33.3342ZM12.5 39.5842V43.7509C12.5 44.3034 12.2805 44.8333 11.8898 45.224C11.4991 45.6147 10.9692 45.8342 10.4167 45.8342H6.25C5.69747 45.8342 5.16756 45.6147 4.77686 45.224C4.38616 44.8333 4.16667 44.3034 4.16667 43.7509V39.5842C4.16667 39.0317 4.38616 38.5018 4.77686 38.1111C5.16756 37.7204 5.69747 37.5009 6.25 37.5009H10.4167C10.9692 37.5009 11.4991 37.7204 11.8898 38.1111C12.2805 38.5018 12.5 39.0317 12.5 39.5842ZM25 12.5009C24.1759 12.5009 23.3703 12.2565 22.6851 11.7986C21.9999 11.3408 21.4659 10.6901 21.1505 9.92871C20.8351 9.16735 20.7526 8.32957 20.9134 7.52132C21.0742 6.71306 21.471 5.97063 22.0537 5.38791C22.6364 4.80519 23.3789 4.40836 24.1871 4.24759C24.9954 4.08682 25.8332 4.16933 26.5945 4.48469C27.3559 4.80006 28.0066 5.33411 28.4645 6.01932C28.9223 6.70452 29.1667 7.5101 29.1667 8.33419C29.1667 9.43926 28.7277 10.4991 27.9463 11.2805C27.1649 12.0619 26.1051 12.5009 25 12.5009ZM45.8333 43.7509C45.8333 44.3034 45.6138 44.8333 45.2231 45.224C44.8324 45.6147 44.3025 45.8342 43.75 45.8342H39.5833C39.0308 45.8342 38.5009 45.6147 38.1102 45.224C37.7195 44.8333 37.5 44.3034 37.5 43.7509V39.5842C37.5 39.0317 37.7195 38.5018 38.1102 38.1111C38.5009 37.7204 39.0308 37.5009 39.5833 37.5009H43.75C44.3025 37.5009 44.8324 37.7204 45.2231 38.1111C45.6138 38.5018 45.8333 39.0317 45.8333 39.5842V43.7509Z" fill="#1A8373"/>
</g>
<defs>
<clipPath id="clip0_1037_33">
<rect width="50" height="50" fill="white"/>
</clipPath>
</defs>
</svg>
